<mxfile host="app.diagrams.net" modified="2022-07-26T22:29:45.687Z" agent="5.0 (Windows NT 10.0; Win64; x64) AppleWebKit/537.36 (KHTML, like Gecko) Chrome/103.0.5060.134 Safari/537.36 Edg/103.0.1264.71" etag="gGsd1dRaf3fTkNlBVxPm" version="20.0.3" type="github">
  <diagram id="C5RBs43oDa-KdzZeNtuy" name="Page-1">
    <mxGraphModel dx="1673" dy="934" grid="0" gridSize="10" guides="1" tooltips="1" connect="1" arrows="1" fold="1" page="0" pageScale="1" pageWidth="827" pageHeight="1169" background="none" math="0" shadow="0">
      <root>
        <mxCell id="WIyWlLk6GJQsqaUBKTNV-0" />
        <mxCell id="WIyWlLk6GJQsqaUBKTNV-1" parent="WIyWlLk6GJQsqaUBKTNV-0" />
        <mxCell id="JRrumDwes5Z1_QWaTFKj-1" style="edgeStyle=orthogonalEdgeStyle;rounded=0;orthogonalLoop=1;jettySize=auto;html=1;exitX=0.5;exitY=1;exitDx=0;exitDy=0;entryX=0.5;entryY=0;entryDx=0;entryDy=0;" edge="1" parent="WIyWlLk6GJQsqaUBKTNV-1" source="hCgRTBO7BKaTBUO3MMOl-0" target="JRrumDwes5Z1_QWaTFKj-0">
          <mxGeometry relative="1" as="geometry" />
        </mxCell>
        <mxCell id="hCgRTBO7BKaTBUO3MMOl-0" value="inicio" style="ellipse;whiteSpace=wrap;html=1;" parent="WIyWlLk6GJQsqaUBKTNV-1" vertex="1">
          <mxGeometry x="387" y="30" width="74" height="30" as="geometry" />
        </mxCell>
        <mxCell id="hCgRTBO7BKaTBUO3MMOl-12" value="" style="edgeStyle=orthogonalEdgeStyle;rounded=0;orthogonalLoop=1;jettySize=auto;html=1;" parent="WIyWlLk6GJQsqaUBKTNV-1" source="hCgRTBO7BKaTBUO3MMOl-3" target="hCgRTBO7BKaTBUO3MMOl-11" edge="1">
          <mxGeometry relative="1" as="geometry" />
        </mxCell>
        <mxCell id="hCgRTBO7BKaTBUO3MMOl-3" value="Valida si la Fecha,hora,Dia General Ya existe&amp;nbsp;" style="whiteSpace=wrap;html=1;" parent="WIyWlLk6GJQsqaUBKTNV-1" vertex="1">
          <mxGeometry x="347" y="510" width="154" height="35" as="geometry" />
        </mxCell>
        <mxCell id="hCgRTBO7BKaTBUO3MMOl-44" value="" style="edgeStyle=orthogonalEdgeStyle;rounded=0;orthogonalLoop=1;jettySize=auto;html=1;" parent="WIyWlLk6GJQsqaUBKTNV-1" source="hCgRTBO7BKaTBUO3MMOl-6" target="hCgRTBO7BKaTBUO3MMOl-43" edge="1">
          <mxGeometry relative="1" as="geometry" />
        </mxCell>
        <mxCell id="hCgRTBO7BKaTBUO3MMOl-6" value="Usuario selecciona fecha de un calendario, Horario General o Dia general" style="shape=parallelogram;perimeter=parallelogramPerimeter;whiteSpace=wrap;html=1;fixedSize=1;" parent="WIyWlLk6GJQsqaUBKTNV-1" vertex="1">
          <mxGeometry x="318.5" y="250" width="210" height="40" as="geometry" />
        </mxCell>
        <mxCell id="hCgRTBO7BKaTBUO3MMOl-14" value="" style="edgeStyle=orthogonalEdgeStyle;rounded=0;orthogonalLoop=1;jettySize=auto;html=1;" parent="WIyWlLk6GJQsqaUBKTNV-1" source="hCgRTBO7BKaTBUO3MMOl-11" target="hCgRTBO7BKaTBUO3MMOl-13" edge="1">
          <mxGeometry relative="1" as="geometry">
            <Array as="points">
              <mxPoint x="280" y="620" />
            </Array>
          </mxGeometry>
        </mxCell>
        <mxCell id="hCgRTBO7BKaTBUO3MMOl-22" value="SI" style="edgeLabel;html=1;align=center;verticalAlign=middle;resizable=0;points=[];" parent="hCgRTBO7BKaTBUO3MMOl-14" vertex="1" connectable="0">
          <mxGeometry x="-0.7764" y="3" relative="1" as="geometry">
            <mxPoint as="offset" />
          </mxGeometry>
        </mxCell>
        <mxCell id="hCgRTBO7BKaTBUO3MMOl-19" style="edgeStyle=orthogonalEdgeStyle;rounded=0;orthogonalLoop=1;jettySize=auto;html=1;exitX=1;exitY=0.5;exitDx=0;exitDy=0;entryX=0.5;entryY=1;entryDx=0;entryDy=0;" parent="WIyWlLk6GJQsqaUBKTNV-1" source="hCgRTBO7BKaTBUO3MMOl-11" target="hCgRTBO7BKaTBUO3MMOl-18" edge="1">
          <mxGeometry relative="1" as="geometry" />
        </mxCell>
        <mxCell id="hCgRTBO7BKaTBUO3MMOl-20" value="NO" style="edgeLabel;html=1;align=center;verticalAlign=middle;resizable=0;points=[];" parent="hCgRTBO7BKaTBUO3MMOl-19" vertex="1" connectable="0">
          <mxGeometry x="-0.7143" y="3" relative="1" as="geometry">
            <mxPoint as="offset" />
          </mxGeometry>
        </mxCell>
        <mxCell id="hCgRTBO7BKaTBUO3MMOl-11" value="La fecha,Hora,Dia General ya existe?" style="rhombus;whiteSpace=wrap;html=1;" parent="WIyWlLk6GJQsqaUBKTNV-1" vertex="1">
          <mxGeometry x="361" y="580" width="126" height="80" as="geometry" />
        </mxCell>
        <mxCell id="hCgRTBO7BKaTBUO3MMOl-30" value="" style="edgeStyle=orthogonalEdgeStyle;rounded=0;orthogonalLoop=1;jettySize=auto;html=1;" parent="WIyWlLk6GJQsqaUBKTNV-1" source="hCgRTBO7BKaTBUO3MMOl-13" target="hCgRTBO7BKaTBUO3MMOl-29" edge="1">
          <mxGeometry relative="1" as="geometry" />
        </mxCell>
        <mxCell id="hCgRTBO7BKaTBUO3MMOl-13" value="Inserta Fecha,Hora,Dia General en BD&amp;nbsp;" style="whiteSpace=wrap;html=1;" parent="WIyWlLk6GJQsqaUBKTNV-1" vertex="1">
          <mxGeometry x="210" y="703" width="120" height="54" as="geometry" />
        </mxCell>
        <mxCell id="hCgRTBO7BKaTBUO3MMOl-21" style="edgeStyle=orthogonalEdgeStyle;rounded=0;orthogonalLoop=1;jettySize=auto;html=1;exitX=0.5;exitY=0;exitDx=0;exitDy=0;entryX=1;entryY=0.5;entryDx=0;entryDy=0;" parent="WIyWlLk6GJQsqaUBKTNV-1" source="hCgRTBO7BKaTBUO3MMOl-18" target="hCgRTBO7BKaTBUO3MMOl-3" edge="1">
          <mxGeometry relative="1" as="geometry" />
        </mxCell>
        <mxCell id="hCgRTBO7BKaTBUO3MMOl-18" value="Ingresa una fecha,Hora,Dia distinta" style="shape=parallelogram;perimeter=parallelogramPerimeter;whiteSpace=wrap;html=1;fixedSize=1;" parent="WIyWlLk6GJQsqaUBKTNV-1" vertex="1">
          <mxGeometry x="529" y="560" width="180" height="30" as="geometry" />
        </mxCell>
        <mxCell id="hCgRTBO7BKaTBUO3MMOl-40" style="edgeStyle=orthogonalEdgeStyle;rounded=0;orthogonalLoop=1;jettySize=auto;html=1;exitX=0.5;exitY=1;exitDx=0;exitDy=0;entryX=0.5;entryY=0;entryDx=0;entryDy=0;" parent="WIyWlLk6GJQsqaUBKTNV-1" source="hCgRTBO7BKaTBUO3MMOl-23" edge="1">
          <mxGeometry relative="1" as="geometry">
            <mxPoint x="433" y="920" as="targetPoint" />
          </mxGeometry>
        </mxCell>
        <mxCell id="hCgRTBO7BKaTBUO3MMOl-23" value="Devuelve Mensaje de inserción correcta" style="whiteSpace=wrap;html=1;" parent="WIyWlLk6GJQsqaUBKTNV-1" vertex="1">
          <mxGeometry x="350" y="820" width="166" height="40" as="geometry" />
        </mxCell>
        <mxCell id="hCgRTBO7BKaTBUO3MMOl-31" value="SI" style="edgeStyle=orthogonalEdgeStyle;rounded=0;orthogonalLoop=1;jettySize=auto;html=1;exitX=0.5;exitY=1;exitDx=0;exitDy=0;" parent="WIyWlLk6GJQsqaUBKTNV-1" source="hCgRTBO7BKaTBUO3MMOl-29" target="hCgRTBO7BKaTBUO3MMOl-23" edge="1">
          <mxGeometry relative="1" as="geometry" />
        </mxCell>
        <mxCell id="hCgRTBO7BKaTBUO3MMOl-33" value="NO" style="edgeStyle=orthogonalEdgeStyle;rounded=0;orthogonalLoop=1;jettySize=auto;html=1;" parent="WIyWlLk6GJQsqaUBKTNV-1" source="hCgRTBO7BKaTBUO3MMOl-29" target="hCgRTBO7BKaTBUO3MMOl-32" edge="1">
          <mxGeometry relative="1" as="geometry" />
        </mxCell>
        <mxCell id="hCgRTBO7BKaTBUO3MMOl-29" value="Se inserto correctamente la fecha,hora,Dia General?" style="rhombus;whiteSpace=wrap;html=1;" parent="WIyWlLk6GJQsqaUBKTNV-1" vertex="1">
          <mxGeometry x="370" y="695" width="126" height="70" as="geometry" />
        </mxCell>
        <mxCell id="hCgRTBO7BKaTBUO3MMOl-37" style="edgeStyle=orthogonalEdgeStyle;rounded=0;orthogonalLoop=1;jettySize=auto;html=1;exitX=0.5;exitY=1;exitDx=0;exitDy=0;entryX=0.5;entryY=0;entryDx=0;entryDy=0;" parent="WIyWlLk6GJQsqaUBKTNV-1" source="hCgRTBO7BKaTBUO3MMOl-32" target="hCgRTBO7BKaTBUO3MMOl-34" edge="1">
          <mxGeometry relative="1" as="geometry" />
        </mxCell>
        <mxCell id="hCgRTBO7BKaTBUO3MMOl-32" value="Genera Ventana emergente de que no se pudo insertar" style="whiteSpace=wrap;html=1;" parent="WIyWlLk6GJQsqaUBKTNV-1" vertex="1">
          <mxGeometry x="550" y="707.5" width="150" height="45" as="geometry" />
        </mxCell>
        <mxCell id="hCgRTBO7BKaTBUO3MMOl-34" value="Regiistro de errores y excepciones" style="shape=document;whiteSpace=wrap;html=1;boundedLbl=1;" parent="WIyWlLk6GJQsqaUBKTNV-1" vertex="1">
          <mxGeometry x="580" y="785" width="120" height="55" as="geometry" />
        </mxCell>
        <mxCell id="hCgRTBO7BKaTBUO3MMOl-47" value="" style="edgeStyle=orthogonalEdgeStyle;rounded=0;orthogonalLoop=1;jettySize=auto;html=1;" parent="WIyWlLk6GJQsqaUBKTNV-1" source="hCgRTBO7BKaTBUO3MMOl-43" target="hCgRTBO7BKaTBUO3MMOl-46" edge="1">
          <mxGeometry relative="1" as="geometry" />
        </mxCell>
        <mxCell id="hCgRTBO7BKaTBUO3MMOl-43" value="Ventana Emergente de confirmación&lt;br&gt;¿Desea insertar la fecha seleccionada?,&lt;br&gt;¿Desea insertar Hora general fin Dia Habil? o&amp;nbsp;&lt;br&gt;¿Desea insertar Dia General Inhabil?" style="shape=parallelogram;perimeter=parallelogramPerimeter;whiteSpace=wrap;html=1;fixedSize=1;" parent="WIyWlLk6GJQsqaUBKTNV-1" vertex="1">
          <mxGeometry x="285.5" y="330" width="276" height="60" as="geometry" />
        </mxCell>
        <mxCell id="hCgRTBO7BKaTBUO3MMOl-48" value="SI" style="edgeStyle=orthogonalEdgeStyle;rounded=0;orthogonalLoop=1;jettySize=auto;html=1;" parent="WIyWlLk6GJQsqaUBKTNV-1" source="hCgRTBO7BKaTBUO3MMOl-46" edge="1">
          <mxGeometry relative="1" as="geometry">
            <mxPoint x="424" y="510" as="targetPoint" />
          </mxGeometry>
        </mxCell>
        <mxCell id="hCgRTBO7BKaTBUO3MMOl-50" value="NO" style="edgeStyle=orthogonalEdgeStyle;rounded=0;orthogonalLoop=1;jettySize=auto;html=1;exitX=1;exitY=0.5;exitDx=0;exitDy=0;entryX=0;entryY=0.5;entryDx=0;entryDy=0;" parent="WIyWlLk6GJQsqaUBKTNV-1" source="hCgRTBO7BKaTBUO3MMOl-46" target="hCgRTBO7BKaTBUO3MMOl-49" edge="1">
          <mxGeometry relative="1" as="geometry" />
        </mxCell>
        <mxCell id="hCgRTBO7BKaTBUO3MMOl-46" value="Selecciona Botón Aceptar&amp;nbsp;" style="rhombus;whiteSpace=wrap;html=1;" parent="WIyWlLk6GJQsqaUBKTNV-1" vertex="1">
          <mxGeometry x="327" y="410" width="194" height="50" as="geometry" />
        </mxCell>
        <mxCell id="hCgRTBO7BKaTBUO3MMOl-49" value="Fin" style="ellipse;whiteSpace=wrap;html=1;" parent="WIyWlLk6GJQsqaUBKTNV-1" vertex="1">
          <mxGeometry x="570" y="420" width="74" height="30" as="geometry" />
        </mxCell>
        <mxCell id="JRrumDwes5Z1_QWaTFKj-3" style="edgeStyle=orthogonalEdgeStyle;rounded=0;orthogonalLoop=1;jettySize=auto;html=1;exitX=0.5;exitY=1;exitDx=0;exitDy=0;entryX=0.5;entryY=0;entryDx=0;entryDy=0;" edge="1" parent="WIyWlLk6GJQsqaUBKTNV-1" source="JRrumDwes5Z1_QWaTFKj-0" target="JRrumDwes5Z1_QWaTFKj-2">
          <mxGeometry relative="1" as="geometry" />
        </mxCell>
        <mxCell id="JRrumDwes5Z1_QWaTFKj-0" value="ventana de Login, usuario ingresa password y usuario" style="shape=parallelogram;perimeter=parallelogramPerimeter;whiteSpace=wrap;html=1;fixedSize=1;" vertex="1" parent="WIyWlLk6GJQsqaUBKTNV-1">
          <mxGeometry x="318.5" y="90" width="210" height="40" as="geometry" />
        </mxCell>
        <mxCell id="JRrumDwes5Z1_QWaTFKj-5" style="edgeStyle=orthogonalEdgeStyle;rounded=0;orthogonalLoop=1;jettySize=auto;html=1;exitX=0;exitY=0.5;exitDx=0;exitDy=0;entryX=0;entryY=0.5;entryDx=0;entryDy=0;" edge="1" parent="WIyWlLk6GJQsqaUBKTNV-1" source="JRrumDwes5Z1_QWaTFKj-2" target="JRrumDwes5Z1_QWaTFKj-0">
          <mxGeometry relative="1" as="geometry">
            <Array as="points">
              <mxPoint x="280" y="185" />
              <mxPoint x="280" y="110" />
            </Array>
          </mxGeometry>
        </mxCell>
        <mxCell id="JRrumDwes5Z1_QWaTFKj-6" value="NO" style="edgeLabel;html=1;align=center;verticalAlign=middle;resizable=0;points=[];" vertex="1" connectable="0" parent="JRrumDwes5Z1_QWaTFKj-5">
          <mxGeometry x="0.1118" y="4" relative="1" as="geometry">
            <mxPoint y="1" as="offset" />
          </mxGeometry>
        </mxCell>
        <mxCell id="JRrumDwes5Z1_QWaTFKj-8" value="SI" style="edgeStyle=orthogonalEdgeStyle;rounded=0;orthogonalLoop=1;jettySize=auto;html=1;exitX=0.5;exitY=1;exitDx=0;exitDy=0;" edge="1" parent="WIyWlLk6GJQsqaUBKTNV-1" source="JRrumDwes5Z1_QWaTFKj-2" target="hCgRTBO7BKaTBUO3MMOl-6">
          <mxGeometry relative="1" as="geometry" />
        </mxCell>
        <mxCell id="JRrumDwes5Z1_QWaTFKj-2" value="Usuario y password correctos?" style="rhombus;whiteSpace=wrap;html=1;" vertex="1" parent="WIyWlLk6GJQsqaUBKTNV-1">
          <mxGeometry x="326.5" y="160" width="194" height="50" as="geometry" />
        </mxCell>
        <mxCell id="JRrumDwes5Z1_QWaTFKj-40" value="Fin" style="ellipse;whiteSpace=wrap;html=1;" vertex="1" parent="WIyWlLk6GJQsqaUBKTNV-1">
          <mxGeometry x="396" y="890" width="74" height="30" as="geometry" />
        </mxCell>
      </root>
    </mxGraphModel>
  </diagram>
</mxfile>
